<svg xmlns="http://www.w3.org/2000/svg" version="1.1" xmlns:xlink="http://www.w3.org/1999/xlink" xmlns:svgjs="http://svgjs.dev/svgjs" width="1440" height="560" preserveAspectRatio="none" viewBox="0 0 1440 560"><g mask="url(&quot;#SvgjsMask1597&quot;)" fill="none"><rect width="1440" height="560" x="0" y="0" fill="url(&quot;#SvgjsLinearGradient1598&quot;)"></rect><path d="M1107 313L1106 14" stroke-width="10" stroke="url(&quot;#SvgjsLinearGradient1599&quot;)" stroke-linecap="round" class="Up"></path><path d="M1 166L0 -3" stroke-width="8" stroke="url(&quot;#SvgjsLinearGradient1599&quot;)" stroke-linecap="round" class="Up"></path><path d="M722 115L721 342" stroke-width="8" stroke="url(&quot;#SvgjsLinearGradient1599&quot;)" stroke-linecap="round" class="Up"></path><path d="M604 49L603 234" stroke-width="10" stroke="url(&quot;#SvgjsLinearGradient1600&quot;)" stroke-linecap="round" class="Down"></path><path d="M344 242L343 -124" stroke-width="8" stroke="url(&quot;#SvgjsLinearGradient1600&quot;)" stroke-linecap="round" class="Down"></path><path d="M1109 445L1108 614" stroke-width="6" stroke="url(&quot;#SvgjsLinearGradient1600&quot;)" stroke-linecap="round" class="Down"></path><path d="M1090 81L1089 -226" stroke-width="8" stroke="url(&quot;#SvgjsLinearGradient1600&quot;)" stroke-linecap="round" class="Down"></path><path d="M1143 427L1142 122" stroke-width="8" stroke="url(&quot;#SvgjsLinearGradient1600&quot;)" stroke-linecap="round" class="Down"></path><path d="M583 193L582 22" stroke-width="8" stroke="url(&quot;#SvgjsLinearGradient1600&quot;)" stroke-linecap="round" class="Down"></path><path d="M443 299L442 445" stroke-width="6" stroke="url(&quot;#SvgjsLinearGradient1599&quot;)" stroke-linecap="round" class="Up"></path><path d="M786 505L785 218" stroke-width="10" stroke="url(&quot;#SvgjsLinearGradient1600&quot;)" stroke-linecap="round" class="Down"></path><path d="M395 499L394 894" stroke-width="6" stroke="url(&quot;#SvgjsLinearGradient1600&quot;)" stroke-linecap="round" class="Down"></path><path d="M197 258L196 44" stroke-width="6" stroke="url(&quot;#SvgjsLinearGradient1599&quot;)" stroke-linecap="round" class="Up"></path><path d="M490 112L489 285" stroke-width="6" stroke="url(&quot;#SvgjsLinearGradient1599&quot;)" stroke-linecap="round" class="Up"></path><path d="M32 287L31 575" stroke-width="8" stroke="url(&quot;#SvgjsLinearGradient1600&quot;)" stroke-linecap="round" class="Down"></path><path d="M1324 445L1323 57" stroke-width="6" stroke="url(&quot;#SvgjsLinearGradient1600&quot;)" stroke-linecap="round" class="Down"></path><path d="M1353 171L1352 384" stroke-width="10" stroke="url(&quot;#SvgjsLinearGradient1600&quot;)" stroke-linecap="round" class="Down"></path><path d="M618 56L617 -123" stroke-width="10" stroke="url(&quot;#SvgjsLinearGradient1600&quot;)" stroke-linecap="round" class="Down"></path><path d="M864 218L863 437" stroke-width="10" stroke="url(&quot;#SvgjsLinearGradient1600&quot;)" stroke-linecap="round" class="Down"></path><path d="M35 125L34 496" stroke-width="6" stroke="url(&quot;#SvgjsLinearGradient1599&quot;)" stroke-linecap="round" class="Up"></path><path d="M1123 163L1122 -41" stroke-width="10" stroke="url(&quot;#SvgjsLinearGradient1599&quot;)" stroke-linecap="round" class="Up"></path><path d="M670 13L669 -264" stroke-width="10" stroke="url(&quot;#SvgjsLinearGradient1600&quot;)" stroke-linecap="round" class="Down"></path><path d="M1316 97L1315 -277" stroke-width="6" stroke="url(&quot;#SvgjsLinearGradient1599&quot;)" stroke-linecap="round" class="Up"></path><path d="M841 327L840 -75" stroke-width="10" stroke="url(&quot;#SvgjsLinearGradient1600&quot;)" stroke-linecap="round" class="Down"></path><path d="M1118 513L1117 185" stroke-width="8" stroke="url(&quot;#SvgjsLinearGradient1600&quot;)" stroke-linecap="round" class="Down"></path><path d="M779 322L778 19" stroke-width="10" stroke="url(&quot;#SvgjsLinearGradient1600&quot;)" stroke-linecap="round" class="Down"></path><path d="M220 70L219 301" stroke-width="8" stroke="url(&quot;#SvgjsLinearGradient1600&quot;)" stroke-linecap="round" class="Down"></path><path d="M627 406L626 580" stroke-width="10" stroke="url(&quot;#SvgjsLinearGradient1599&quot;)" stroke-linecap="round" class="Up"></path><path d="M130 225L129 554" stroke-width="6" stroke="url(&quot;#SvgjsLinearGradient1600&quot;)" stroke-linecap="round" class="Down"></path><path d="M1280 95L1279 470" stroke-width="8" stroke="url(&quot;#SvgjsLinearGradient1599&quot;)" stroke-linecap="round" class="Up"></path><path d="M1007 22L1006 -207" stroke-width="10" stroke="url(&quot;#SvgjsLinearGradient1600&quot;)" stroke-linecap="round" class="Down"></path><path d="M5 238L4 613" stroke-width="10" stroke="url(&quot;#SvgjsLinearGradient1600&quot;)" stroke-linecap="round" class="Down"></path><path d="M951 173L950 -50" stroke-width="8" stroke="url(&quot;#SvgjsLinearGradient1599&quot;)" stroke-linecap="round" class="Up"></path><path d="M233 73L232 317" stroke-width="10" stroke="url(&quot;#SvgjsLinearGradient1599&quot;)" stroke-linecap="round" class="Up"></path><path d="M1143 149L1142 442" stroke-width="6" stroke="url(&quot;#SvgjsLinearGradient1600&quot;)" stroke-linecap="round" class="Down"></path><path d="M973 338L972 55" stroke-width="10" stroke="url(&quot;#SvgjsLinearGradient1600&quot;)" stroke-linecap="round" class="Down"></path></g><defs><mask id="SvgjsMask1597"><rect width="1440" height="560" fill="#ffffff"></rect></mask><linearGradient x1="15.28%" y1="-39.29%" x2="84.72%" y2="139.29%" gradientUnits="userSpaceOnUse" id="SvgjsLinearGradient1598"><stop stop-color="#0e2a47" offset="0"></stop><stop stop-color="rgba(92, 98, 37, 1)" offset="1"></stop></linearGradient><linearGradient x1="0%" y1="100%" x2="0%" y2="0%" id="SvgjsLinearGradient1599"><stop stop-color="rgba(28, 83, 142, 0)" offset="0"></stop><stop stop-color="#1c538e" offset="1"></stop></linearGradient><linearGradient x1="0%" y1="0%" x2="0%" y2="100%" id="SvgjsLinearGradient1600"><stop stop-color="rgba(28, 83, 142, 0)" offset="0"></stop><stop stop-color="#1c538e" offset="1"></stop></linearGradient></defs></svg>